{
    "asset" : {
        "generator" : "Khronos glTF Blender I/O v3.2.43",
        "version" : "2.0"
    },
    "scene" : 0,
    "scenes" : [
        {
            "name" : "Scene",
            "nodes" : [
                0
            ]
        }
    ],
    "nodes" : [
        {
            "mesh" : 0,
            "name" : "pPlane1_blinn1_0"
        }
    ],
    "materials" : [
        {
            "doubleSided" : true,
            "name" : "support_texture",
            "pbrMetallicRoughness" : {
                "metallicFactor" : 0,
                "roughnessFactor" : 0.6000000238418579
            }
        },
        {
            "doubleSided" : true,
            "name" : "NES_main",
            "pbrMetallicRoughness" : {
                "baseColorTexture" : {
                    "index" : 0
                },
                "metallicFactor" : 0,
                "roughnessFactor" : 0.6000000238418579
            }
        }
    ],
    "meshes" : [
        {
            "name" : "pPlane1_blinn1_0",
            "primitives" : [
                {
                    "attributes" : {
                        "POSITION" : 0,
                        "NORMAL" : 1,
                        "TEXCOORD_0" : 2
                    },
                    "indices" : 3,
                    "material" : 0
                },
                {
                    "attributes" : {
                        "POSITION" : 4,
                        "NORMAL" : 5,
                        "TEXCOORD_0" : 6
                    },
                    "indices" : 7,
                    "material" : 1
                }
            ]
        }
    ],
    "textures" : [
        {
            "sampler" : 0,
            "source" : 0
        }
    ],
    "images" : [
        {
            "mimeType" : "image/jpeg",
            "name" : "NES_small_baseColor",
            "uri" : "NES_small_baseColor.jpg"
        }
    ],
    "accessors" : [
        {
            "bufferView" : 0,
            "componentType" : 5126,
            "count" : 8,
            "max" : [
                0.04398143291473389,
                0.06032230705022812,
                0.005550263915210962
            ],
            "min" : [
                -0.011899452656507492,
                -0.024088211357593536,
                -0.0015798796666786075
            ],
            "type" : "VEC3"
        },
        {
            "bufferView" : 1,
            "componentType" : 5126,
            "count" : 8,
            "type" : "VEC3"
        },
        {
            "bufferView" : 2,
            "componentType" : 5126,
            "count" : 8,
            "type" : "VEC2"
        },
        {
            "bufferView" : 3,
            "componentType" : 5123,
            "count" : 12,
            "type" : "SCALAR"
        },
        {
            "bufferView" : 4,
            "componentType" : 5126,
            "count" : 1409,
            "max" : [
                0.05896487087011337,
                0.06014344096183777,
                0.005350392311811447
            ],
            "min" : [
                -0.059949856251478195,
                -0.07129356265068054,
                -0.005008583888411522
            ],
            "type" : "VEC3"
        },
        {
            "bufferView" : 5,
            "componentType" : 5126,
            "count" : 1409,
            "type" : "VEC3"
        },
        {
            "bufferView" : 6,
            "componentType" : 5126,
            "count" : 1409,
            "type" : "VEC2"
        },
        {
            "bufferView" : 7,
            "componentType" : 5123,
            "count" : 1524,
            "type" : "SCALAR"
        }
    ],
    "bufferViews" : [
        {
            "buffer" : 0,
            "byteLength" : 96,
            "byteOffset" : 0
        },
        {
            "buffer" : 0,
            "byteLength" : 96,
            "byteOffset" : 96
        },
        {
            "buffer" : 0,
            "byteLength" : 64,
            "byteOffset" : 192
        },
        {
            "buffer" : 0,
            "byteLength" : 24,
            "byteOffset" : 256
        },
        {
            "buffer" : 0,
            "byteLength" : 16908,
            "byteOffset" : 280
        },
        {
            "buffer" : 0,
            "byteLength" : 16908,
            "byteOffset" : 17188
        },
        {
            "buffer" : 0,
            "byteLength" : 11272,
            "byteOffset" : 34096
        },
        {
            "buffer" : 0,
            "byteLength" : 3048,
            "byteOffset" : 45368
        }
    ],
    "samplers" : [
        {
            "magFilter" : 9729,
            "minFilter" : 9987
        }
    ],
    "buffers" : [
        {
            "byteLength" : 48416,
            "uri" : "model.bin"
        }
    ]
}
