<?xml version="1.0" encoding="UTF-8" standalone="no"?>
<svg
   height="16"
   viewBox="0 0 16 15.999999"
   width="16"
   version="1.1"
   id="svg6"
   sodipodi:docname="icon_GUI_radio_checked.svg"
   inkscape:version="1.2.2 (b0a8486541, 2022-12-01)"
   xmlns:inkscape="http://www.inkscape.org/namespaces/inkscape"
   xmlns:sodipodi="http://sodipodi.sourceforge.net/DTD/sodipodi-0.dtd"
   xmlns="http://www.w3.org/2000/svg"
   xmlns:svg="http://www.w3.org/2000/svg">
  <defs
     id="defs10" />
  <sodipodi:namedview
     id="namedview8"
     pagecolor="#ffffff"
     bordercolor="#666666"
     borderopacity="1.0"
     inkscape:showpageshadow="2"
     inkscape:pageopacity="0.0"
     inkscape:pagecheckerboard="0"
     inkscape:deskcolor="#d1d1d1"
     showgrid="false"
     inkscape:zoom="14.75"
     inkscape:cx="5.7627119"
     inkscape:cy="8.0338983"
     inkscape:window-width="952"
     inkscape:window-height="510"
     inkscape:window-x="961"
     inkscape:window-y="541"
     inkscape:window-maximized="1"
     inkscape:current-layer="svg6" />
  <path
     d="m15 8a7 7 0 0 1 -7 7 7 7 0 0 1 -7-7 7 7 0 0 1 7-7 7 7 0 0 1 7 7"
     fill="#699ce8"
     stroke-width="2.33333"
     id="path2"
     style="fill:#ffbb89;fill-opacity:1" />
  <path
     d="m12 8a4 4 0 0 1 -4 4 4 4 0 0 1 -4-4 4 4 0 0 1 4-4 4 4 0 0 1 4 4"
     fill="#fff"
     stroke-width="1.33333"
     id="path4" />
</svg>
