<svg xmlns="http://www.w3.org/2000/svg" xmlns:xlink="http://www.w3.org/1999/xlink" width="73" height="22" viewBox="0 0 73 22"><link xmlns="" type="text/css" rel="stylesheet" id="dark-mode-custom-link"/><link xmlns="" type="text/css" rel="stylesheet" id="dark-mode-general-link"/><style xmlns="" lang="en" type="text/css" id="dark-mode-custom-style"/><style xmlns="" lang="en" type="text/css" id="dark-mode-native-style"/><style xmlns="" lang="en" type="text/css" id="dark-mode-native-sheet"/>
  <defs>
    <clipPath id="clip-logo_svg">
      <rect width="73" height="22"/>
    </clipPath>
  </defs>
  <g id="logo_svg" clip-path="url(#clip-logo_svg)">
    <g id="logo_svg-2" data-name="logo_svg" transform="translate(0.527 2.437)">
      <path id="Path_8" data-name="Path 8" d="M2.066,0H16.751a2.066,2.066,0,0,1,2.066,2.066V19.934A2.066,2.066,0,0,1,16.751,22H2.066A2.066,2.066,0,0,1,0,19.934V2.066A2.066,2.066,0,0,1,2.066,0Z" transform="translate(52.531 -2.437)" fill="#6b9bd2"/>
      <g id="Group_1" data-name="Group 1" transform="translate(0.467 -0.575)">
        <path id="Path_1" data-name="Path 1" d="M.467,18.264A4.09,4.09,0,0,0,.83,17.8q.363-.487.814-1.064.526-.676,1.2-1.529a13.332,13.332,0,0,0,1.378.852,9.136,9.136,0,0,0,1.3.576,3.953,3.953,0,0,0,1.329.251,2.749,2.749,0,0,0,.764-.113,2.7,2.7,0,0,0,.7-.313,1.891,1.891,0,0,0,.514-.476,1,1,0,0,0,.2-.6,1.661,1.661,0,0,0-.877-1.366,11.279,11.279,0,0,0-2.155-1.091,14.436,14.436,0,0,1-1.667-.814A7.758,7.758,0,0,1,2.76,10.934,5.8,5.8,0,0,1,1.595,9.342a4.467,4.467,0,0,1-.451-2.029,5.837,5.837,0,0,1,.364-2.055A4.926,4.926,0,0,1,2.6,3.529,5.21,5.21,0,0,1,4.4,2.338,6.7,6.7,0,0,1,6.932,1.9a7.206,7.206,0,0,1,2.055.276,10.378,10.378,0,0,1,1.679.652,8.533,8.533,0,0,1,1.3.79q.551.414.928.689L10.59,7.438c-.05-.033-.2-.138-.438-.314a8.349,8.349,0,0,0-.89-.551,8.643,8.643,0,0,0-1.178-.526,3.926,3.926,0,0,0-1.353-.238,1.952,1.952,0,0,0-1.177.363,1.053,1.053,0,0,0-.5.864A1.641,1.641,0,0,0,5.718,8.3,8.172,8.172,0,0,0,7.885,9.468q.727.3,1.616.752a7.848,7.848,0,0,1,1.654,1.128,5.957,5.957,0,0,1,1.278,1.616,4.55,4.55,0,0,1,.514,2.217,5.227,5.227,0,0,1-.4,1.967,5.8,5.8,0,0,1-1.165,1.8,5.989,5.989,0,0,1-1.867,1.328,5.8,5.8,0,0,1-2.481.514,8.3,8.3,0,0,1-2.343-.326A12,12,0,0,1,2.684,19.7a11.216,11.216,0,0,1-1.478-.852A4.739,4.739,0,0,1,.467,18.264Z" transform="translate(-0.467 -1.9)" fill="#575880"/>
        <path id="Path_2" data-name="Path 2" d="M15.586,2.6h4.335l4.16,9.522L28.24,2.6h4.335L24.081,20.839Z" transform="translate(-0.902 -1.92)" fill="#575880"/>
        <path id="Path_3" data-name="Path 3" d="M50.153,14.28a6.642,6.642,0,0,1-1.992,4.447,6.143,6.143,0,0,1-1.453,1.053,8.41,8.41,0,0,1-2.03.739,11.738,11.738,0,0,1-2.694.276,9.167,9.167,0,0,1-3.67-.74A9.467,9.467,0,0,1,33.3,15.018a9.233,9.233,0,0,1-.734-3.67A9.234,9.234,0,0,1,33.3,7.676a9.467,9.467,0,0,1,5.016-5.037,9.434,9.434,0,0,1,7.342.009A18.038,18.038,0,0,1,48.65,4.664l-2.756,2.75a5.93,5.93,0,0,0-1.754-1.165,5.323,5.323,0,0,0-2.156-.439,5.431,5.431,0,0,0-2.155.428,5.551,5.551,0,0,0,0,10.219,5.428,5.428,0,0,0,2.155.428,5.989,5.989,0,0,0,2.469-.405,3.458,3.458,0,0,0,1.266-.911,2.526,2.526,0,0,0,.526-1.315H41.983V10.345h8.169V14.28Z" transform="translate(-1.39 -1.9)" fill="#575880"/>
      </g>
      <g id="Group_2" data-name="Group 2" transform="translate(55.63 0.574)">
        <path id="Path_4" data-name="Path 4" d="M59.5,7.91h-.719V9.882H57.263v-6.8h2.962a2.353,2.353,0,0,1,.937.189,2.385,2.385,0,0,1,1.282,1.281,2.358,2.358,0,0,1,.189.938,2.318,2.318,0,0,1-.118.738,2.522,2.522,0,0,1-.321.646,2.487,2.487,0,0,1-.486.524,2.186,2.186,0,0,1-.621.354l1.544,2.127H60.769Zm-.72-1.428h1.447a.944.944,0,0,0,.384-.078,1,1,0,0,0,.529-.529.944.944,0,0,0,.078-.384.931.931,0,0,0-.257-.657,1.014,1.014,0,0,0-.617-.325H58.777V6.482Z" transform="translate(-57.263 -3.083)" fill="#f7f7f7"/>
      </g>
      <g id="Group_3" data-name="Group 3" transform="translate(63.08 0.574)">
        <path id="Path_5" data-name="Path 5" d="M66.606,8.367H69.78V9.882H64.934v-6.8H69.78V4.6H66.606v1.06h2.649V7.173H66.606Z" transform="translate(-64.934 -3.083)" fill="#f7f7f7"/>
      </g>
      <g id="Group_4" data-name="Group 4" transform="translate(55.428 9.639)">
        <path id="Path_6" data-name="Path 6" d="M62.425,14.826a2.34,2.34,0,0,1-.189.937,2.509,2.509,0,0,1-.514.772,2.4,2.4,0,0,1-.768.52,2.352,2.352,0,0,1-.937.188H58.569v1.972H57.055v-6.8h2.961a2.353,2.353,0,0,1,.937.189,2.376,2.376,0,0,1,1.282,1.281A2.352,2.352,0,0,1,62.425,14.826Zm-3.857.991h1.447a.952.952,0,0,0,.385-.078,1.007,1.007,0,0,0,.529-.529.973.973,0,0,0-.18-1.04,1.019,1.019,0,0,0-.617-.325H58.568v1.973Z" transform="translate(-57.055 -12.416)" fill="#f7f7f7"/>
      </g>
      <g id="Group_5" data-name="Group 5" transform="translate(62.325 9.351)">
        <path id="Path_7" data-name="Path 7" d="M64.156,15.717a3.8,3.8,0,0,1,.258-1.408,3.639,3.639,0,0,1,.706-1.141,3.334,3.334,0,0,1,1.047-.766,3.007,3.007,0,0,1,1.284-.281,3.046,3.046,0,0,1,1.3.281,3.314,3.314,0,0,1,1.053.766,3.639,3.639,0,0,1,.706,1.141,3.8,3.8,0,0,1,.258,1.408,3.738,3.738,0,0,1-.258,1.394,3.643,3.643,0,0,1-.706,1.137,3.3,3.3,0,0,1-1.053.765,3.046,3.046,0,0,1-1.3.281,3,3,0,0,1-1.284-.281,3.316,3.316,0,0,1-1.047-.765,3.654,3.654,0,0,1-.706-1.137A3.734,3.734,0,0,1,64.156,15.717Zm1.369,0a2.189,2.189,0,0,0,.153.822,2.153,2.153,0,0,0,.414.664,1.911,1.911,0,0,0,.611.445,1.771,1.771,0,0,0,.748.162,1.827,1.827,0,0,0,.762-.162,1.922,1.922,0,0,0,.619-.445,2.023,2.023,0,0,0,.414-.664,2.206,2.206,0,0,0,.15-.822,2.234,2.234,0,0,0-.15-.823,2.082,2.082,0,0,0-.414-.668,1.964,1.964,0,0,0-.619-.455,1.787,1.787,0,0,0-.762-.167,1.739,1.739,0,0,0-.748.167,1.955,1.955,0,0,0-.611.455,2.238,2.238,0,0,0-.414.668A2.2,2.2,0,0,0,65.525,15.717Z" transform="translate(-64.156 -12.12)" fill="#f7f7f7"/>
      </g>
    </g>
  </g>
<script xmlns="" id="bw-fido2-page-script"/></svg>