{
    "asset" : {
        "generator" : "Khronos glTF Blender I/O v3.2.43",
        "version" : "2.0"
    },
    "scene" : 0,
    "scenes" : [
        {
            "name" : "Scene",
            "nodes" : [
                0
            ]
        }
    ],
    "nodes" : [
        {
            "mesh" : 0,
            "name" : "Object003_01 - Default_0"
        }
    ],
    "materials" : [
        {
            "doubleSided" : true,
            "name" : "01_-_Default",
            "pbrMetallicRoughness" : {
                "baseColorFactor" : [
                    0.5882350206375122,
                    0.5882350206375122,
                    0.5882350206375122,
                    1
                ],
                "metallicFactor" : 0,
                "roughnessFactor" : 0.8929713368415833
            }
        },
        {
            "doubleSided" : true,
            "name" : "support_texture",
            "pbrMetallicRoughness" : {
                "metallicFactor" : 0,
                "roughnessFactor" : 0.5
            }
        }
    ],
    "meshes" : [
        {
            "name" : "Object003_01 - Default_0",
            "primitives" : [
                {
                    "attributes" : {
                        "POSITION" : 0,
                        "NORMAL" : 1,
                        "TEXCOORD_0" : 2
                    },
                    "indices" : 3,
                    "material" : 0
                },
                {
                    "attributes" : {
                        "POSITION" : 4,
                        "NORMAL" : 5,
                        "TEXCOORD_0" : 6
                    },
                    "indices" : 7,
                    "material" : 1
                }
            ]
        }
    ],
    "accessors" : [
        {
            "bufferView" : 0,
            "componentType" : 5126,
            "count" : 9915,
            "max" : [
                0.06767582893371582,
                0.019980987533926964,
                0.041646674275398254
            ],
            "min" : [
                -0.06767599284648895,
                -7.842465947760502e-07,
                -0.04654982313513756
            ],
            "type" : "VEC3"
        },
        {
            "bufferView" : 1,
            "componentType" : 5126,
            "count" : 9915,
            "type" : "VEC3"
        },
        {
            "bufferView" : 2,
            "componentType" : 5126,
            "count" : 9915,
            "type" : "VEC2"
        },
        {
            "bufferView" : 3,
            "componentType" : 5123,
            "count" : 10365,
            "type" : "SCALAR"
        },
        {
            "bufferView" : 4,
            "componentType" : 5126,
            "count" : 8,
            "max" : [
                0.04272359609603882,
                0.020107517018914223,
                -0.0023374035954475403
            ],
            "min" : [
                -0.04277119040489197,
                0.011262519285082817,
                -0.04603029787540436
            ],
            "type" : "VEC3"
        },
        {
            "bufferView" : 5,
            "componentType" : 5126,
            "count" : 8,
            "type" : "VEC3"
        },
        {
            "bufferView" : 6,
            "componentType" : 5126,
            "count" : 8,
            "type" : "VEC2"
        },
        {
            "bufferView" : 7,
            "componentType" : 5123,
            "count" : 12,
            "type" : "SCALAR"
        }
    ],
    "bufferViews" : [
        {
            "buffer" : 0,
            "byteLength" : 118980,
            "byteOffset" : 0
        },
        {
            "buffer" : 0,
            "byteLength" : 118980,
            "byteOffset" : 118980
        },
        {
            "buffer" : 0,
            "byteLength" : 79320,
            "byteOffset" : 237960
        },
        {
            "buffer" : 0,
            "byteLength" : 20730,
            "byteOffset" : 317280
        },
        {
            "buffer" : 0,
            "byteLength" : 96,
            "byteOffset" : 338012
        },
        {
            "buffer" : 0,
            "byteLength" : 96,
            "byteOffset" : 338108
        },
        {
            "buffer" : 0,
            "byteLength" : 64,
            "byteOffset" : 338204
        },
        {
            "buffer" : 0,
            "byteLength" : 24,
            "byteOffset" : 338268
        }
    ],
    "buffers" : [
        {
            "byteLength" : 338292,
            "uri" : "model.bin"
        }
    ]
}
