<?xml version="1.0" encoding="UTF-8" standalone="no"?>
<!-- Uploaded to: SVG Repo, www.svgrepo.com, Generator: SVG Repo Mixer Tools -->

<svg
   width="100"
   height="100"
   viewBox="0 0 3 3"
   version="1.1"
   id="svg1"
   sodipodi:docname="integrations.svg"
   inkscape:version="1.3.2 (091e20ef0f, 2023-11-25, custom)"
   xmlns:inkscape="http://www.inkscape.org/namespaces/inkscape"
   xmlns:sodipodi="http://sodipodi.sourceforge.net/DTD/sodipodi-0.dtd"
   xmlns="http://www.w3.org/2000/svg"
   xmlns:svg="http://www.w3.org/2000/svg"
   xmlns:rdf="http://www.w3.org/1999/02/22-rdf-syntax-ns#"
   xmlns:cc="http://creativecommons.org/ns#"
   xmlns:dc="http://purl.org/dc/elements/1.1/">
  <defs
     id="defs1" />
  <sodipodi:namedview
     id="namedview1"
     pagecolor="#ffffff"
     bordercolor="#666666"
     borderopacity="1.0"
     inkscape:showpageshadow="2"
     inkscape:pageopacity="0.0"
     inkscape:pagecheckerboard="0"
     inkscape:deskcolor="#d1d1d1"
     inkscape:zoom="0.10429825"
     inkscape:cx="-723.88559"
     inkscape:cy="-1016.3162"
     inkscape:window-width="1786"
     inkscape:window-height="830"
     inkscape:window-x="20"
     inkscape:window-y="160"
     inkscape:window-maximized="1"
     inkscape:current-layer="svg1" />
  <title
     id="title1">plugin_2_fill</title>
  <g
     id="页面-1"
     stroke="none"
     stroke-width="1"
     fill="none"
     fill-rule="evenodd"
     transform="scale(0.125)">
    <g
       id="Device"
       transform="translate(-336,-240)"
       fill-rule="nonzero">
      <g
         id="plugin_2_fill"
         transform="translate(336,240)">
        <path
           d="M 24,0 V 24 H 0 V 0 Z m -11.40651,23.257841 -0.01155,0.0017 -0.07106,0.03553 -0.019,0.0037 v 0 l -0.01516,-0.0037 -0.07106,-0.03553 c -0.0098,-0.0031 -0.01861,-4.89e-4 -0.02351,0.0054 l -0.0041,0.01092 -0.01709,0.427279 0.005,0.02039 0.01101,0.01222 0.103573,0.07398 0.01487,0.0039 v 0 l 0.01177,-0.0039 0.103575,-0.07398 0.0126,-0.01604 v 0 l 0.0034,-0.01656 -0.01709,-0.427279 c -0.002,-0.01013 -0.0085,-0.01653 -0.01607,-0.01799 z m 0.264901,-0.112555 -0.01384,0.002 -0.184705,0.09235 -0.01,0.01024 v 0 l -0.0027,0.01121 0.0179,0.429528 0.0048,0.01278 v 0 l 0.0085,0.0071 0.200954,0.09275 c 0.01209,0.0037 0.02289,-2.52e-4 0.02849,-0.008 l 0.004,-0.01406 -0.03415,-0.614631 c -0.0024,-0.01194 -0.01027,-0.01953 -0.01929,-0.02125 z m -0.715344,0.002 c -0.0098,-0.0049 -0.02087,-0.002 -0.02741,0.0053 l -0.0057,0.01394 -0.03415,0.614631 c -6.39e-4,0.0115 0.007,0.0207 0.01688,0.0234 l 0.01561,-0.0013 0.200955,-0.09275 0.0094,-0.0081 v 0 l 0.0039,-0.0118 0.0179,-0.429528 -0.0032,-0.01259 v 0 l -0.0095,-0.0089 z"
           id="MingCute"
           fill-rule="nonzero" />
        <path
           d="M 2,9 C 2,7.34315 3.34315,6 5,6 H 7.85279 C 8.15014,6 8.33369,5.69148 8.21898,5.41714 8.16269,5.28251 8.11486,5.14448 8.0827,5 7.75165,3.51305 8.87451,2 10.5,2 12.1255,2 13.2483,3.51305 12.9173,5 12.8851,5.14448 12.8373,5.28251 12.781,5.41714 12.6663,5.69148 12.8499,6 13.1472,6 H 15 c 1.6569,0 3,1.34315 3,3 v 1.8528 c 0,0.2973 0.3085,0.4809 0.5829,0.3662 0.1346,-0.0563 0.2726,-0.1041 0.4171,-0.1363 1.4869,-0.331 3,0.7918 3,2.4173 0,1.6255 -1.5131,2.7483 -3,2.4173 -0.1445,-0.0322 -0.2825,-0.08 -0.4171,-0.1363 C 18.3085,15.6663 18,15.8499 18,16.1472 V 19 c 0,1.6569 -1.3431,3 -3,3 H 13.1066 C 12.8194,22 12.6341,21.7088 12.7164,21.4337 12.7583,21.2937 12.7892,21.1502 12.8021,21 12.9129,19.7075 11.8988,18.5 10.5,18.5 9.1012,18.5 8.08712,19.7075 8.1979,21 8.21078,21.1502 8.2417,21.2937 8.28358,21.4337 8.36589,21.7088 8.18055,22 7.89338,22 H 5 C 3.34315,22 2,20.6569 2,19 V 16.1066 C 2,15.8194 2.29121,15.6341 2.56632,15.7164 2.7063,15.7583 2.84976,15.7892 3,15.8021 4.29252,15.9129 5.5,14.8988 5.5,13.5 5.5,12.1012 4.29252,11.0871 3,11.1979 2.84976,11.2108 2.7063,11.2417 2.56633,11.2836 2.29121,11.3659 2,11.1806 2,10.8934 Z"
           id="路径"
           fill="#ffffff" />
      </g>
    </g>
  </g>
  <metadata
     id="metadata1">
    <rdf:RDF>
      <cc:Work
         rdf:about="">
        <dc:title>plugin_2_fill</dc:title>
      </cc:Work>
    </rdf:RDF>
  </metadata>
</svg>
