<?xml version="1.0" encoding="UTF-8" standalone="no"?>
<!-- Generator: Adobe Illustrator 18.0.0, SVG Export Plug-In . SVG Version: 6.00 Build 0)  -->

<svg
   version="1.1"
   id="Capa_1"
   x="0px"
   y="0px"
   viewBox="0 0 297 297"
   style="enable-background:new 0 0 297 297;"
   xml:space="preserve"
   sodipodi:docname="region.svg"
   inkscape:version="1.2.1 (9c6d41e410, 2022-07-14, custom)"
   xmlns:inkscape="http://www.inkscape.org/namespaces/inkscape"
   xmlns:sodipodi="http://sodipodi.sourceforge.net/DTD/sodipodi-0.dtd"
   xmlns="http://www.w3.org/2000/svg"
   xmlns:svg="http://www.w3.org/2000/svg"><defs
   id="defs41" /><sodipodi:namedview
   id="namedview39"
   pagecolor="#ffffff"
   bordercolor="#666666"
   borderopacity="1.0"
   inkscape:showpageshadow="2"
   inkscape:pageopacity="0.0"
   inkscape:pagecheckerboard="0"
   inkscape:deskcolor="#d1d1d1"
   showgrid="false"
   inkscape:zoom="0.79461279"
   inkscape:cx="149.12924"
   inkscape:cy="149.12924"
   inkscape:window-width="1366"
   inkscape:window-height="724"
   inkscape:window-x="0"
   inkscape:window-y="22"
   inkscape:window-maximized="1"
   inkscape:current-layer="Capa_1" />
<g
   id="g6"
   style="fill:#ffffff">
	<path
   d="M160.596,42.346C150.472,17.534,126.142,0,97.791,0C60.387,0,29.957,30.508,29.957,68.006   c0,12.802,3.263,25.499,8.28,37.458c-10.92,18.81-17.199,40.637-17.199,63.916c0,70.37,57.179,127.62,127.461,127.62   c70.283,0,127.463-57.25,127.463-127.62C275.962,103.095,225.225,48.468,160.596,42.346z M243.498,119.446   c6.375,12.113,10.506,25.584,11.837,39.858h-50.761c-0.447-13.886-1.817-27.318-4.032-39.858H243.498z M229.784,99.295h-33.751   c-1.628-5.897-3.458-11.502-5.506-16.717c-2.138-5.441-4.474-10.368-6.979-14.775C201.632,74.079,217.535,85.065,229.784,99.295z    M184.418,159.305h-62.567c9.065-10.158,20.025-24.027,28.713-39.858h29.503C182.457,131.799,183.938,145.263,184.418,159.305z    M175.041,99.295h-15.299c2.686-7.485,4.614-15.206,5.435-23.019c2.326,3.894,4.556,8.482,6.594,13.67   C172.939,92.92,174.023,96.051,175.041,99.295z M97.791,20.152c26.292,0,47.683,21.467,47.683,47.854   c0,35.471-33.171,72.782-47.69,87.413c-14.523-14.607-47.675-51.851-47.675-87.413C50.108,41.619,71.499,20.152,97.791,20.152z    M73.731,159.305H41.665c1.044-11.197,3.818-21.898,8.039-31.838C57.438,139.96,66.232,150.902,73.731,159.305z M53.498,219.308   c-6.372-12.11-10.502-25.579-11.833-39.852h50.759c0.446,13.883,1.814,27.313,4.031,39.852H53.498z M67.211,239.46h33.752   c1.628,5.898,3.458,11.504,5.507,16.719c2.138,5.442,4.475,10.37,6.978,14.777C95.365,264.679,79.461,253.691,67.211,239.46z    M171.77,248.811c-6.794,17.294-15.71,28.037-23.271,28.037c-7.561,0-16.479-10.743-23.272-28.037   c-1.168-2.975-2.254-6.105-3.271-9.35h53.087C174.024,242.705,172.939,245.836,171.77,248.811z M116.93,219.308   c-2.389-12.35-3.871-25.812-4.35-39.852h71.838c-0.48,14.04-1.961,27.502-4.351,39.852H116.93z M183.548,270.956   c2.505-4.407,4.841-9.335,6.979-14.777c2.049-5.215,3.879-10.82,5.506-16.719h33.755   C217.538,253.691,201.633,264.68,183.548,270.956z M243.501,219.308h-42.959c2.216-12.539,3.585-25.969,4.032-39.852h50.761   C254.004,193.729,249.874,207.197,243.501,219.308z"
   id="path2"
   style="fill:#ffffff" />
	<path
   d="M125.554,68.006c0-15.414-12.455-27.955-27.763-27.955S70.029,52.592,70.029,68.006c0,15.413,12.454,27.953,27.762,27.953   S125.554,83.419,125.554,68.006z M90.182,68.006c0-4.304,3.414-7.804,7.609-7.804c4.196,0,7.61,3.5,7.61,7.804   c0,4.302-3.414,7.801-7.61,7.801C93.596,75.807,90.182,72.308,90.182,68.006z"
   id="path4"
   style="fill:#ffffff" />
</g>
<g
   id="g8">
</g>
<g
   id="g10">
</g>
<g
   id="g12">
</g>
<g
   id="g14">
</g>
<g
   id="g16">
</g>
<g
   id="g18">
</g>
<g
   id="g20">
</g>
<g
   id="g22">
</g>
<g
   id="g24">
</g>
<g
   id="g26">
</g>
<g
   id="g28">
</g>
<g
   id="g30">
</g>
<g
   id="g32">
</g>
<g
   id="g34">
</g>
<g
   id="g36">
</g>
</svg>
