<?xml version="1.0" encoding="UTF-8" standalone="no"?>
<!-- Generator: Adobe Illustrator 19.0.0, SVG Export Plug-In . SVG Version: 6.00 Build 0)  -->

<svg
   version="1.1"
   id="Capa_1"
   x="0px"
   y="0px"
   viewBox="0 0 489.2 489.2"
   style="enable-background:new 0 0 489.2 489.2;"
   xml:space="preserve"
   sodipodi:docname="systems.svg"
   inkscape:version="1.2.1 (9c6d41e410, 2022-07-14, custom)"
   xmlns:inkscape="http://www.inkscape.org/namespaces/inkscape"
   xmlns:sodipodi="http://sodipodi.sourceforge.net/DTD/sodipodi-0.dtd"
   xmlns="http://www.w3.org/2000/svg"
   xmlns:svg="http://www.w3.org/2000/svg"><defs
   id="defs45" /><sodipodi:namedview
   id="namedview43"
   pagecolor="#ffffff"
   bordercolor="#666666"
   borderopacity="1.0"
   inkscape:showpageshadow="2"
   inkscape:pageopacity="0.0"
   inkscape:pagecheckerboard="0"
   inkscape:deskcolor="#d1d1d1"
   showgrid="false"
   inkscape:zoom="0.48242027"
   inkscape:cx="244.60001"
   inkscape:cy="245.63645"
   inkscape:window-width="675"
   inkscape:window-height="714"
   inkscape:window-x="684"
   inkscape:window-y="25"
   inkscape:window-maximized="1"
   inkscape:current-layer="Capa_1" />
<g
   id="g10"
   style="fill:#ffffff">
	<g
   id="g8"
   style="fill:#ffffff">
		<g
   id="g6"
   style="fill:#ffffff">
			<g
   id="g4"
   style="fill:#ffffff">
				<path
   d="M164.4,448.7h160.4c7.8,0,14.2-6.3,14.2-14.2v-37.9h110.7c21.8,0,39.5-17.7,39.5-39.5V80c0-21.8-17.7-39.5-39.5-39.5      H39.5C17.7,40.5,0,58.2,0,80v277.1c0,21.8,17.7,39.5,39.5,39.5h110.7v37.9C150.3,442.4,156.6,448.7,164.4,448.7z M53.9,342.3      v-248h381.4v248H53.9z M272.2,188.4c0,8.9-5.3,16.6-12.9,20.1v90.7h-18.6v-90.7c-7.6-3.5-12.9-11.2-12.9-20.1      s5.3-16.6,12.9-20.1v-30.8h18.6v30.8C266.9,171.8,272.2,179.5,272.2,188.4z M334.9,243.9c0,8.9-5.3,16.6-12.9,20.1v35.2h-18.6      V264c-7.6-3.5-12.9-11.2-12.9-20.1s5.3-16.6,12.9-20.1v-86.3H322v86.3C329.6,227.3,334.9,235,334.9,243.9z M209.6,218.4      c0,8.9-5.3,16.6-12.9,20.1v60.8h-18.6v-60.8c-7.6-3.5-12.9-11.2-12.9-20.1s5.3-16.6,12.9-20.1v-60.8h18.6v60.8      C204.3,201.8,209.6,209.5,209.6,218.4z"
   id="path2"
   style="fill:#ffffff" />
			</g>
		</g>
	</g>
</g>
<g
   id="g12">
</g>
<g
   id="g14">
</g>
<g
   id="g16">
</g>
<g
   id="g18">
</g>
<g
   id="g20">
</g>
<g
   id="g22">
</g>
<g
   id="g24">
</g>
<g
   id="g26">
</g>
<g
   id="g28">
</g>
<g
   id="g30">
</g>
<g
   id="g32">
</g>
<g
   id="g34">
</g>
<g
   id="g36">
</g>
<g
   id="g38">
</g>
<g
   id="g40">
</g>
</svg>
